<svg xmlns="http://www.w3.org/2000/svg" width="32" height="32" enable-background="new 0 0 32 32" viewBox="0 0 32 32"><path fill="#263238" d="M23.5 17.092c-.055 0-.111-.009-.165-.028C23.134 16.994 23 16.805 23 16.592V13h-2.5c-.276 0-.5-.224-.5-.5s.224-.5.5-.5h3c.276 0 .5.224.5.5v2.658l2.358-2.969C26.453 12.069 26.598 12 26.75 12h2.75c.276 0 .5-.225.5-.5v-9C30 2.225 29.776 2 29.5 2h-15C14.224 2 14 2.225 14 2.5v9c0 .275.224.5.5.5h2c.276 0 .5.224.5.5S16.776 13 16.5 13h-2c-.827 0-1.5-.673-1.5-1.5v-9C13 1.673 13.673 1 14.5 1h15C30.327 1 31 1.673 31 2.5v9c0 .827-.673 1.5-1.5 1.5h-2.509l-3.1 3.902C23.795 17.024 23.649 17.092 23.5 17.092zM18.5 17.996v1c1.103 0 2 .897 2 2s-.897 2-2 2v1c1.654 0 3-1.346 3-3S20.154 17.996 18.5 17.996zM6.927 24.563l.485 5.135-1.519.305L5.865 30.03l-.839-5.468h-1.01l.873 5.673c.12.451.532.767 1.002.767.065 0 .132-.006.198-.02l1.519-.305c.264-.052.489-.204.636-.428.147-.224.197-.491.15-.696l-.465-4.991H6.927z"/><path fill="#263238" d="M8.5 18C8.224 18 8 17.776 8 17.5S8.224 17 8.5 17c2.556 0 5.222-.97 7.709-2.806.223-.163.535-.116.699.105.164.223.117.535-.105.699C14.143 16.962 11.271 18 8.5 18zM18.5 29.607c-.135 0-.271-.055-.369-.163-.041-.044-4.137-4.448-9.668-4.448H3.375C2.11 24.996 1 23.881 1 22.609v-3.252c0-1.28 1.088-2.361 2.375-2.361L6.5 17C6.777 17 7 17.225 7 17.501 7 17.776 6.776 18 6.5 18h0l-3.125-.004C2.63 17.996 2 18.619 2 19.357v3.252c0 .726.656 1.387 1.375 1.387h5.087c5.981 0 10.229 4.579 10.407 4.774.186.204.172.52-.032.706C18.741 29.563 18.621 29.607 18.5 29.607z"/><rect width="1" height="6.918" x="8" y="17.537" fill="#263238"/><path fill="#263238" d="M18.5 29.996c-.276 0-.5-.224-.5-.5v-17c0-.276.224-.5.5-.5s.5.224.5.5v17C19 29.772 18.776 29.996 18.5 29.996zM4.5 22h-1C3.224 22 3 21.776 3 21.5S3.224 21 3.5 21h1C4.776 21 5 21.224 5 21.5S4.776 22 4.5 22zM4.5 20h-1C3.224 20 3 19.776 3 19.5S3.224 19 3.5 19h1C4.776 19 5 19.224 5 19.5S4.776 20 4.5 20zM19 10.5l6-7L19 10.5zM19 11c-.115 0-.231-.039-.325-.12-.21-.18-.234-.496-.054-.705l6-7c.181-.21.496-.233.705-.055.21.18.234.496.054.705l-6 7C19.281 10.94 19.141 11 19 11zM24.5 11c-.451 0-1.5-.195-1.5-2 0-1.74.94-2 1.5-2S26 7.26 26 9C26 10.805 24.951 11 24.5 11zM24.5 8C24.313 8 24 8 24 9s.363 1 .5 1S25 10 25 9 24.687 8 24.5 8zM19.5 7C19.049 7 18 6.805 18 5c0-1.74.94-2 1.5-2S21 3.26 21 5C21 6.805 19.951 7 19.5 7zM19.5 4C19.313 4 19 4 19 5s.363 1 .5 1S20 6 20 5 19.687 4 19.5 4z"/></svg>