<svg xmlns="http://www.w3.org/2000/svg" width="32" height="32"><path fill="#263238" d="M7.927 30.865a.499.499 0 0 1-.496-.448l-.402-3.858H4.721a1.272 1.272 0 0 1-1.256-1.137l-.292-3.002H1.961c-.361 0-.66-.153-.82-.421-.16-.267-.154-.604.017-.922l1.747-3.87-.063-1.116c-.001-1.912.862-3.755 2.367-5.085a.5.5 0 1 1 .662.75c-1.31 1.156-2.03 2.686-2.03 4.307l.069 1.21a.496.496 0 0 1-.043.234L2.1 21.417l1.527.003a.5.5 0 0 1 .498.451l.336 3.453a.276.276 0 0 0 .26.234h2.758c.256 0 .471.193.497.448l.449 4.307a.5.5 0 0 1-.498.552z"/><path fill="#263238" d="M12.718 30.906a.5.5 0 0 1-.496-.447l-.595-5.57H8.904a1.384 1.384 0 0 1-1.369-1.242l-.343-3.516H5.73c-.389 0-.709-.163-.88-.447-.17-.285-.162-.645.021-.988l2.019-4.471-.073-1.306c-.001-2.526 1.326-4.928 3.549-6.45a.499.499 0 1 1 .564.824c-1.95 1.337-3.114 3.43-3.114 5.598l.079 1.399a.493.493 0 0 1-.043.234l-2.078 4.599 1.872.008a.5.5 0 0 1 .498.451l.387 3.969a.39.39 0 0 0 .373.338h3.172c.256 0 .47.192.497.447l.643 6.018a.5.5 0 0 1-.498.552z"/><path fill="#263238" d="M16.473 23.465h-2.586a1.5 1.5 0 0 1-1.482-1.346l-.392-4.033h-1.714c-.416 0-.758-.173-.938-.475-.18-.301-.171-.684.027-1.051l2.288-5.073-.083-1.494C11.592 4.994 16.039.95 21.506.95c5.396 0 9.467 4.262 9.467 9.912 0 2.158-.528 4.213-1.616 6.281a.5.5 0 0 1-.885-.465c1.01-1.922 1.501-3.824 1.501-5.816 0-5.081-3.64-8.912-8.467-8.912-4.915 0-8.914 3.596-8.914 8.016l.089 1.588c.005.08-.01.16-.043.233l-2.354 5.217a.876.876 0 0 0-.039.082.87.87 0 0 0 .054.001h2.168a.5.5 0 0 1 .498.452l.436 4.486c.022.239.245.44.486.44h2.586a.5.5 0 0 1 0 1z"/><path fill="#263238" d="M22.398 17.927H20.6a.5.5 0 0 1-.488-.394l-.296-1.352a5.902 5.902 0 0 1-1.194-.496l-1.166.747a.5.5 0 0 1-.623-.067l-1.271-1.271a.5.5 0 0 1-.067-.623l.747-1.166a5.902 5.902 0 0 1-.496-1.194l-1.352-.296a.499.499 0 0 1-.394-.489V9.527c0-.235.163-.438.393-.488l1.351-.296c.122-.416.289-.815.497-1.194l-.747-1.166a.5.5 0 0 1 .067-.623l1.271-1.271a.5.5 0 0 1 .623-.067l1.166.747a5.95 5.95 0 0 1 1.194-.496l.296-1.352a.5.5 0 0 1 .488-.393h1.799c.235 0 .438.163.488.393l.296 1.353c.414.12.813.286 1.194.495l1.166-.747a.5.5 0 0 1 .624.066l1.271 1.271a.5.5 0 0 1 .067.623l-.746 1.168c.209.381.375.78.495 1.193l1.353.296a.5.5 0 0 1 .393.488v1.799a.499.499 0 0 1-.393.488l-1.353.296a5.88 5.88 0 0 1-.495 1.193l.747 1.167a.5.5 0 0 1-.067.623l-1.271 1.272a.5.5 0 0 1-.623.067l-1.166-.748c-.38.209-.779.374-1.194.495l-.296 1.353a.502.502 0 0 1-.49.395zm-1.396-1h.994l.275-1.258a.502.502 0 0 1 .374-.381 4.917 4.917 0 0 0 1.479-.613.498.498 0 0 1 .533.004l1.085.695.703-.703-.695-1.085a.5.5 0 0 1-.005-.532 4.94 4.94 0 0 0 .614-1.48.5.5 0 0 1 .38-.374l1.258-.275V9.93l-1.257-.276a.5.5 0 0 1-.38-.374 4.918 4.918 0 0 0-.614-1.48.499.499 0 0 1 .005-.532l.695-1.085-.703-.703-1.085.695a.498.498 0 0 1-.533.004 4.934 4.934 0 0 0-1.479-.613.5.5 0 0 1-.374-.38l-.275-1.258h-.994l-.275 1.258a.5.5 0 0 1-.375.38 4.904 4.904 0 0 0-1.479.613.498.498 0 0 1-.533-.004l-1.085-.695-.703.703.695 1.085a.5.5 0 0 1 .004.533 4.986 4.986 0 0 0-.616 1.48.497.497 0 0 1-.379.373L15 9.93v.994l1.258.275a.5.5 0 0 1 .38.374c.122.523.328 1.021.613 1.479a.496.496 0 0 1-.004.533l-.695 1.085.703.703 1.085-.695a.503.503 0 0 1 .533-.004c.459.285.956.492 1.479.613a.5.5 0 0 1 .375.381l.275 1.259zm.496-2.999c-1.93 0-3.5-1.57-3.5-3.5s1.57-3.5 3.5-3.5 3.5 1.57 3.5 3.5-1.57 3.5-3.5 3.5zm0-6c-1.379 0-2.5 1.121-2.5 2.5s1.121 2.5 2.5 2.5 2.5-1.121 2.5-2.5-1.121-2.5-2.5-2.5z"/><path fill="#263238" d="M25.443 29.934h-1.484a.5.5 0 0 1-.488-.394l-.232-1.065a4.976 4.976 0 0 1-.906-.376l-.92.588a.498.498 0 0 1-.623-.067l-1.05-1.05a.5.5 0 0 1-.067-.624l.59-.918a4.968 4.968 0 0 1-.377-.906l-1.064-.233a.5.5 0 0 1-.394-.488v-1.484a.5.5 0 0 1 .394-.488l1.064-.233c.095-.313.221-.616.377-.906l-.59-.92a.5.5 0 0 1 .067-.623l1.049-1.049a.498.498 0 0 1 .623-.067l.92.588a4.98 4.98 0 0 1 .906-.377l.232-1.063a.5.5 0 0 1 .488-.394h1.484a.5.5 0 0 1 .488.393l.233 1.064c.313.095.616.221.907.377l.918-.588a.5.5 0 0 1 .623.067l1.049 1.049a.5.5 0 0 1 .067.623l-.588.92c.155.29.282.594.377.906l1.064.233a.5.5 0 0 1 .394.488V24.4a.5.5 0 0 1-.394.488l-1.065.233c-.094.313-.22.615-.376.906l.588.919a.5.5 0 0 1-.067.623l-1.049 1.05a.501.501 0 0 1-.623.067l-.918-.589a5.045 5.045 0 0 1-.907.376l-.233 1.066a.495.495 0 0 1-.487.395zm-1.081-1h.679l.213-.971a.502.502 0 0 1 .375-.38c.42-.098.821-.264 1.194-.494a.495.495 0 0 1 .532.004l.835.535.48-.48-.535-.836a.5.5 0 0 1-.004-.533c.231-.373.397-.774.494-1.192a.5.5 0 0 1 .381-.376l.97-.212v-.68l-.968-.212a.5.5 0 0 1-.38-.374 4.042 4.042 0 0 0-.497-1.194.496.496 0 0 1 .004-.533l.535-.837-.48-.48-.835.535a.5.5 0 0 1-.532.004 4.038 4.038 0 0 0-1.195-.497.498.498 0 0 1-.374-.379l-.213-.968h-.68l-.211.966a.5.5 0 0 1-.374.38 4.02 4.02 0 0 0-1.194.497.498.498 0 0 1-.533-.004l-.837-.535-.48.48.537.837a.5.5 0 0 1 .004.533c-.23.372-.397.773-.497 1.194a.498.498 0 0 1-.38.374l-.968.212v.68l.968.212a.5.5 0 0 1 .38.374c.1.421.267.822.497 1.194a.498.498 0 0 1-.004.534l-.536.836.479.479.837-.535a.503.503 0 0 1 .533-.004 3.96 3.96 0 0 0 1.193.494.5.5 0 0 1 .375.381l.212.971zm.339-2.3c-1.641 0-2.975-1.334-2.975-2.975s1.334-2.975 2.975-2.975 2.975 1.334 2.975 2.975-1.334 2.975-2.975 2.975zm0-4.949c-1.089 0-1.975.886-1.975 1.975s.886 1.975 1.975 1.975 1.975-.886 1.975-1.975-.886-1.975-1.975-1.975z"/></svg>