<svg xmlns="http://www.w3.org/2000/svg" width="32" height="32" enable-background="new 0 0 32 32" viewBox="0 0 32 32"><path fill="#263238" d="M26.5,3h-5.958v1H26.5C26.776,4,27,4.225,27,4.5v25c0,0.275-0.224,0.5-0.5,0.5h-21
					C5.224,30,5,29.775,5,29.5v-25C5,4.225,5.224,4,5.5,4h6V3h-6C4.673,3,4,3.673,4,4.5v25C4,30.327,4.673,31,5.5,31h21
					c0.827,0,1.5-0.673,1.5-1.5v-25C28,3.673,27.327,3,26.5,3z"/><path fill="#263238" d="M25.5 22c-.276 0-.5-.224-.5-.5V6h-2.5C22.224 6 22 5.776 22 5.5S22.224 5 22.5 5h3C25.776 5 26 5.224 26 5.5v16C26 21.776 25.776 22 25.5 22zM20.5 29h-14C6.224 29 6 28.776 6 28.5v-23C6 5.224 6.224 5 6.5 5h3C9.776 5 10 5.224 10 5.5S9.776 6 9.5 6H7v22h13.5c.276 0 .5.224.5.5S20.776 29 20.5 29z"/><path fill="#263238" d="M20.5 29c-.064 0-.129-.013-.191-.038C20.122 28.885 20 28.702 20 28.5v-5c0-.276.224-.5.5-.5h5c.202 0 .385.122.462.309.078.187.035.402-.108.545l-5 5C20.758 28.949 20.63 29 20.5 29zM21 24v3.293L24.293 24H21zM9.653 18.016c-.004 0-.007 0-.011 0-.142-.003-.276-.066-.368-.174l-1.153-1.346c-.18-.209-.156-.525.054-.705.21-.18.526-.154.705.055l.791.922 1.59-1.693c.189-.201.505-.211.707-.021s.211.506.022.707l-1.972 2.099C9.923 17.959 9.791 18.016 9.653 18.016zM9.653 13.016c-.004 0-.007 0-.011 0-.142-.003-.276-.066-.368-.174l-1.153-1.346c-.18-.209-.156-.525.054-.705.21-.18.526-.154.705.055l.791.922 1.59-1.693c.189-.201.505-.211.707-.021s.211.506.022.707l-1.972 2.099C9.923 12.959 9.791 13.016 9.653 13.016zM17.5 23h-4c-.276 0-.5-.224-.5-.5s.224-.5.5-.5h4c.276 0 .5.224.5.5S17.776 23 17.5 23zM22.5 21h-9c-.276 0-.5-.224-.5-.5s.224-.5.5-.5h9c.276 0 .5.224.5.5S22.776 21 22.5 21zM22.5 16h-3c-.276 0-.5-.224-.5-.5s.224-.5.5-.5h3c.276 0 .5.224.5.5S22.776 16 22.5 16zM20.5 18h-7c-.276 0-.5-.224-.5-.5s.224-.5.5-.5h7c.276 0 .5.224.5.5S20.776 18 20.5 18zM17.5 16h-4c-.276 0-.5-.224-.5-.5s.224-.5.5-.5h4c.276 0 .5.224.5.5S17.776 16 17.5 16zM22.5 11h-9c-.276 0-.5-.224-.5-.5s.224-.5.5-.5h9c.276 0 .5.224.5.5S22.776 11 22.5 11zM18.5 13h-5c-.276 0-.5-.224-.5-.5s.224-.5.5-.5h5c.276 0 .5.224.5.5S18.776 13 18.5 13zM10.5 23h-2C8.224 23 8 22.776 8 22.5v-2C8 20.224 8.224 20 8.5 20h2c.276 0 .5.224.5.5v2C11 22.776 10.776 23 10.5 23zM9 22h1v-1H9V22zM20.5 7h-9C11.224 7 11 6.776 11 6.5v-3C11 2.673 11.673 2 12.5 2 12.776 2 13 2.224 13 2.5S12.776 3 12.5 3C12.224 3 12 3.225 12 3.5V6h8V3.5C20 3.225 19.776 3 19.5 3 19.224 3 19 2.776 19 2.5S19.224 2 19.5 2C20.327 2 21 2.673 21 3.5v3C21 6.776 20.776 7 20.5 7z"/><path fill="#263238" d="M17.5,3C17.224,3,17,2.776,17,2.5C17,2.225,16.776,2,16.5,2h-1c-0.108,0-0.211,0.033-0.296,0.097
			C15.074,2.192,15,2.339,15,2.5C15,2.776,14.776,3,14.5,3S14,2.776,14,2.5c0-0.475,0.228-0.926,0.609-1.207
			C14.867,1.102,15.176,1,15.5,1h1C17.327,1,18,1.673,18,2.5C18,2.776,17.776,3,17.5,3z"/></svg>