<svg xmlns="http://www.w3.org/2000/svg" width="32" height="32" enable-background="new 0 0 32 32" viewBox="0 0 32 32"><path fill="#263238" d="M4.229 24.972c-.154 0-.308-.072-.405-.207C-.5 18.774.16 10.627 5.393 5.393c5.85-5.848 15.365-5.848 21.215 0 .195.195.195.512 0 .707s-.512.195-.707 0C20.441.643 11.559.643 6.1 6.1c-4.884 4.886-5.5 12.489-1.466 18.079.162.225.111.537-.112.698C4.433 24.941 4.33 24.972 4.229 24.972zM16 30.993c-3.842 0-7.683-1.462-10.607-4.386-.195-.195-.195-.512 0-.707s.512-.195.707 0c5.459 5.457 14.342 5.457 19.801 0 4.873-4.876 5.496-12.471 1.48-18.059-.161-.225-.109-.537.114-.698.225-.161.537-.11.698.114 4.303 5.987 3.636 14.125-1.586 19.35C23.683 29.531 19.842 30.992 16 30.993z"/><path fill="#263238" d="M5.746 29.214c-.276 0-.5-.224-.5-.5v-2.46c0-.276.224-.5.5-.5h2.461c.276 0 .5.224.5.5s-.224.5-.5.5H6.246v1.96C6.246 28.99 6.022 29.214 5.746 29.214zM26.254 6.246h-2.461c-.276 0-.5-.224-.5-.5s.224-.5.5-.5h1.961v-1.96c0-.276.224-.5.5-.5s.5.224.5.5v2.46C26.754 6.022 26.53 6.246 26.254 6.246zM16 27C9.935 27 5 22.065 5 16S9.935 5 16 5s11 4.935 11 11S22.065 27 16 27zM16 6C10.486 6 6 10.486 6 16s4.486 10 10 10 10-4.486 10-10S21.514 6 16 6z"/><path fill="#263238" d="M16,27C9.935,27,5,22.065,5,16S9.935,5,16,5s11,4.935,11,11S22.065,27,16,27z M16,6
			C10.486,6,6,10.486,6,16s4.486,10,10,10s10-4.486,10-10S21.514,6,16,6z"/><path fill="#263238" d="M23.646 23.68c-.047 0-.094-.007-.141-.021-4.881-1.434-10.131-1.434-15.012 0-.264.077-.543-.072-.62-.339-.078-.265.073-.542.339-.62 5.063-1.488 10.512-1.488 15.574 0 .266.078.417.355.339.62C24.063 23.539 23.863 23.68 23.646 23.68zM16 10.422c-1.822 0-3.649-.182-5.433-.54-.271-.055-.446-.318-.392-.589.055-.271.324-.445.589-.392 4.203.846 8.613.652 12.741-.561.263-.079.543.072.62.339.078.265-.073.542-.339.62C21.256 10.044 18.636 10.422 16 10.422z"/><path fill="#263238" d="M16.504,26.975c-0.159,0-0.316-0.076-0.413-0.218c-0.155-0.229-0.097-0.539,0.131-0.695
			c3.354-2.289,5.356-6.05,5.356-10.062s-2.002-7.772-5.356-10.062c-0.228-0.156-0.286-0.467-0.131-0.695
			c0.156-0.228,0.467-0.284,0.695-0.131c3.627,2.476,5.792,6.546,5.792,10.888s-2.165,8.412-5.792,10.888
			C16.699,26.946,16.602,26.975,16.504,26.975z"/><path fill="#263238" d="M15.496,26.975c-0.098,0-0.195-0.028-0.282-0.087C11.587,24.412,9.422,20.342,9.422,16
			c0-3.133,1.129-6.169,3.178-8.55c0.181-0.21,0.497-0.231,0.705-0.053c0.209,0.18,0.233,0.496,0.053,0.705
			c-1.893,2.199-2.936,5.004-2.936,7.897c0,4.012,2.002,7.772,5.356,10.062c0.228,0.156,0.286,0.467,0.131,0.695
			C15.813,26.898,15.655,26.975,15.496,26.975z"/><path fill="#263238" d="M16,26.447c-0.276,0-0.5-0.224-0.5-0.5V6.053c0-0.276,0.224-0.5,0.5-0.5s0.5,0.224,0.5,0.5v19.895
				C16.5,26.224,16.276,26.447,16,26.447z"/><path fill="#263238" d="M25.947,16.5H7.553c-0.276,0-0.5-0.224-0.5-0.5s0.224-0.5,0.5-0.5h18.395c0.276,0,0.5,0.224,0.5,0.5
				S26.224,16.5,25.947,16.5z"/></svg>