<svg xmlns="http://www.w3.org/2000/svg" width="32" height="32"><path fill="#263238" d="M21.5 23h-20a.5.5 0 0 1-.5-.5v-14a.5.5 0 0 1 .5-.5h17a.5.5 0 0 1 0 1H2v13h19.5a.5.5 0 0 1 0 1z"/><path fill="#263238" d="M19.5 17c0-1.135-.771-1.962-2.291-2.458l-.113-.037C16.526 14.319 16 14.069 16 13.5c0-.589.411-1 1-1 .704 0 1.174.378 1.178.382a.5.5 0 1 0 .644-.764 3.021 3.021 0 0 0-1.331-.572c.001-.016.009-.029.009-.046V11a.5.5 0 0 0-1 0v.5c0 .021.01.04.013.062-.888.207-1.513.968-1.513 1.938 0 1.374 1.344 1.813 1.785 1.955l.113.037c1.079.352 1.602.846 1.602 1.508 0 .855-.645 1.5-1.5 1.5-.928 0-1.459-.612-1.6-.8a.5.5 0 0 0-.801.599c.185.247.819.981 1.908 1.16-.001.014-.008.026-.008.04V20a.5.5 0 0 0 1 0v-.5c0-.017-.008-.031-.01-.048A2.468 2.468 0 0 0 19.5 17zm2 6a.5.5 0 0 1 0-1c1.379 0 2.5-1.121 2.5-2.5v-3a.5.5 0 0 1 1 0v3c0 1.93-1.57 3.5-3.5 3.5z"/><path fill="#263238" d="M24.5 20a.5.5 0 0 1-.5-.5c0-1.379-1.121-2.5-2.5-2.5h-1a.5.5 0 0 1-.5-.5v-14a.5.5 0 0 1 .5-.5h1C23.43 2 25 3.57 25 5.5v14a.5.5 0 0 1-.5.5zM21 16h.5c.979 0 1.864.403 2.5 1.053V5.5C24 4.121 22.879 3 21.5 3H21v13zm9.5 15h-29a.5.5 0 0 1 0-1h29a.5.5 0 0 1 0 1zm0-2h-29a.5.5 0 0 1 0-1h29a.5.5 0 0 1 0 1zm0-2h-29a.5.5 0 0 1 0-1h29a.5.5 0 0 1 0 1z"/><path fill="#263238" d="M30.5 25h-29a.5.5 0 0 1 0-1H30V11h-3.5a.5.5 0 0 1 0-1h4a.5.5 0 0 1 .5.5v14a.5.5 0 0 1-.5.5z"/></svg>