<svg xmlns="http://www.w3.org/2000/svg" width="32" height="32"><path fill="#263238" d="M20.332 30.601c-.384 0-.769-.146-1.061-.438L5.643 16.533c-.482-.482-.842-1.395-.819-2.076l.285-8.255a1.595 1.595 0 0 1 1.517-1.516l1.773-.053c.264 0 .507.207.517.483a.502.502 0 0 1-.482.518l-1.775.053a.595.595 0 0 0-.551.55l-.285 8.255c-.013.408.238 1.045.527 1.334l13.629 13.629a.5.5 0 0 0 .707 0l9.192-9.193c.094-.094.146-.219.146-.354s-.052-.26-.146-.354L16.25 5.928c-.289-.289-.907-.571-1.336-.526l-3.938.136c-.292-.017-.508-.207-.518-.482a.502.502 0 0 1 .482-.518l3.939-.136c.695.002 1.595.337 2.077.819l13.628 13.627c.282.282.438.659.438 1.061s-.156.778-.438 1.061l-9.192 9.193a1.497 1.497 0 0 1-1.06.438z"/><path fill="#263238" d="M11 13.477c-1.654 0-3-1.346-3-3 0-1.065.554-2.028 1.48-2.577a.5.5 0 1 1 .51.862A1.98 1.98 0 0 0 9 10.477c0 1.103.897 2 2 2s2-.897 2-2c0-.921-.63-1.716-1.532-1.933a.5.5 0 1 1 .235-.973A2.984 2.984 0 0 1 14 10.477c0 1.654-1.346 3-3 3zm4.771 3.587c-.276.282-.587.45-.936.498a1.093 1.093 0 0 1-.7-.131 1.645 1.645 0 0 1-.381-.29c-.236-.239-.375-.494-.413-.766a1.387 1.387 0 0 1 .083-.701 2.21 2.21 0 0 1 .436-.701l.239.208c.208.18.256.516.106.747 0 0-.045.069-.051.272a.433.433 0 0 0 .137.363c.137.129.308.168.513.12a.666.666 0 0 0 .325-.205c.167-.166.258-.406.271-.722l-.027-1.048c-.007-.395.024-.712.096-.948.084-.261.226-.496.429-.699.365-.362.765-.519 1.198-.46.265.037.51.17.733.394.216.216.352.448.41.697.044.195.036.396-.024.604a1.66 1.66 0 0 1-.332.598l-.273-.189c-.227-.157-.309-.445-.183-.641l.015-.17c.011-.122-.036-.234-.142-.338a.382.382 0 0 0-.397-.105.761.761 0 0 0-.365.224c-.185.183-.293.448-.324.797-.013.133-.009.307.013.524.022.258.033.434.032.525a2.903 2.903 0 0 1-.097.788 2.529 2.529 0 0 1-.095.28 1.608 1.608 0 0 1-.296.475zm1.535 1.689c-.174-.174-.498-.184-.721-.022l-.259.188c-.223.161-.547.151-.721-.021-.173-.173-.131-.444.094-.604l3.876-2.751a.617.617 0 0 1 .762.064l.125.124a.614.614 0 0 1 .063.761l-2.758 3.868c-.159.224-.434.265-.608.09s-.186-.499-.022-.721l.188-.258c.163-.221.154-.544-.019-.718zm1.871-1.769c.166-.22.121-.264-.099-.099l-1.006.756c-.22.165-.299.401-.176.524.124.124.359.045.525-.175l.756-1.006zm.93 5.813c-.166.165-.461.142-.655-.053l-.94-.942a.502.502 0 0 1 0-.707l3.303-3.304c.194-.194.49-.217.656-.051.166.167.144.463-.051.657l-2.702 2.701a.502.502 0 0 0 0 .707l.337.337c.194.195.217.49.052.655zm.64 1.241a.502.502 0 0 1 0-.707l3.306-3.308a.502.502 0 0 1 .707 0l1.016 1.015c.194.194.217.49.049.657-.167.168-.463.146-.657-.049l-.41-.409a.502.502 0 0 0-.707 0l-.387.386a.504.504 0 0 0-.001.708l.11.109c.193.195.216.491.048.658-.167.167-.463.145-.657-.05l-.109-.108a.502.502 0 0 0-.707 0l-.387.387a.502.502 0 0 0 0 .707l.41.411c.194.194.217.49.049.657s-.464.145-.658-.05l-1.015-1.014z"/><path fill="#263238" d="M8.84 11.699a.5.5 0 0 1-.146-.978 3.068 3.068 0 0 0 1.294-.768c1.502-1.503 1.149-4.299-.786-6.234-.951-.952-2.136-1.552-3.335-1.687-1.155-.132-2.185.189-2.898.902-1.501 1.502-1.149 4.298.786 6.233.064.064.13.128.196.189a.499.499 0 1 1-.676.736c-.078-.071-.153-.145-.228-.219C.724 7.55.37 4.119 2.262 2.227c.93-.933 2.248-1.356 3.717-1.189 1.424.161 2.82.862 3.93 1.974 2.325 2.325 2.678 5.756.786 7.648a4.084 4.084 0 0 1-1.71 1.018.519.519 0 0 1-.145.021z"/></svg>